<!DOCTYPE svg PUBLIC "-//W3C//DTD SVG 1.1//EN" "http://www.w3.org/Graphics/SVG/1.1/DTD/svg11.dtd">
<svg xmlns="http://www.w3.org/2000/svg" xmlns:xlink="http://www.w3.org/1999/xlink" version="1.1" x="0px" y="0px" viewBox="0 0 100 100" enable-background="new 0 0 100 100" xml:space="preserve"><g><path fill="#efefef" stroke="#333" stroke-width="3" d="M91.3,52.6c0-2,0.9-4.4,1.8-6.8c1.3-3.7,2.7-7.5,1.4-10.7c-2.3-5.5-7.6-11.2-10.5-14.2c-0.9-0.9-1.9-2.1-3-3.3   c-3.1-3.5-6.6-7.5-10.5-9c-3.1-1.3-7.2-1.4-10.5-1.4c-1.4,0-2.9,0-4.3,0.1c-1.2,0-2.4,0.1-3.5,0.1c-3.8,0-6.2,3.8-8.6,7.4   c-1.6,2.4-3.2,4.9-4.8,5.5c-0.6,0.3-1.5,0.4-2.5,0.4c-1.4,0-3.1-0.3-4.7-0.5c-1.7-0.3-3.5-0.5-5.1-0.5c-2.4,0-4.2,0.6-5.4,1.9   c-3.9,3.9-6.6,9.9-8.6,14.7c-0.6,1.5-1.6,3.2-2.7,5C7.5,44.7,5,48.7,5,52.6c0,3.8,3.7,6.5,7.3,9.1c2.3,1.7,4.8,3.5,5.4,5.1   c2,4.8,3.8,8.7,7.6,12.5c1.2,1.2,2.2,2.7,3.3,4.3c2,2.9,4.1,5.9,7.5,7.4c3.9,1.6,8.3,1.8,12.4,1.8c0.6,0,1.2,0,1.8,0   c0.6,0,1.2,0,1.8,0c4.1,0,7.5-1.7,10.7-3.4c1.2-0.6,2.5-1.3,3.8-1.8c1.5-0.6,3-1.1,4.5-1.5c3.4-1,7-2.1,9.7-4.8   c1.2-1.2,2.8-2.3,4.6-3.5c3.3-2.2,6.6-4.6,8.1-8c1.3-3.2,0.2-7-0.9-10.6C92,56.9,91.3,54.6,91.3,52.6z"/><path stroke="#333" stroke-width="3" fill="#ccc" d="M68.1,29.3c-6,0-10.8,4.9-10.8,10.8S62.1,51,68.1,51s10.8-4.9,10.8-10.8S74.1,29.3,68.1,29.3z "/><path stroke="#333" stroke-width="3" fill="#ccc" d="M38.4,32.7c-3.1,0-5.6,2.4-5.6,5.4c0,3,2.5,5.4,5.6,5.4c3.1,0,5.6-2.4,5.6-5.4C44.1,35.1,41.5,32.7,38.4,32.7z M"/><path stroke="#333" stroke-width="3" fill="#eee" d="M23.5,40.5c-4,0-7.2,4-7.2,9s3.2,9,7.2,9s7.2-4,7.2-9S27.5,40.5,23.5,40.5z"/><path stroke="#333" stroke-width="3" fill="#ddd" d="M54.1,69.5c-4,0-7.3,2.8-7.3,6.2c0,3.4,3.3,6.2,7.3,6.2s7.3-2.8,7.3-6.2C61.4,72.2,58.1,69.5,54.1,69.5z "/></g></svg>