<?xml version="1.0" encoding="UTF-8" standalone="no"?>
<!-- Created with Inkscape (http://www.inkscape.org/) -->
<svg
   xmlns:dc="http://purl.org/dc/elements/1.1/"
   xmlns:cc="http://creativecommons.org/ns#"
   xmlns:rdf="http://www.w3.org/1999/02/22-rdf-syntax-ns#"
   xmlns:svg="http://www.w3.org/2000/svg"
   xmlns="http://www.w3.org/2000/svg"
   xmlns:xlink="http://www.w3.org/1999/xlink"
   xmlns:sodipodi="http://sodipodi.sourceforge.net/DTD/sodipodi-0.dtd"
   xmlns:inkscape="http://www.inkscape.org/namespaces/inkscape"
   version="1.0"
   width="387"
   height="351"
   id="svg2"
   sodipodi:version="0.32"
   inkscape:version="0.46"
   sodipodi:docname="Portal_physics.svg"
   inkscape:output_extension="org.inkscape.output.svg.inkscape">
  <metadata
     id="metadata41">
    <rdf:RDF>
      <cc:Work
         rdf:about="">
        <dc:format>image/svg+xml</dc:format>
        <dc:type
           rdf:resource="http://purl.org/dc/dcmitype/StillImage" />
      </cc:Work>
    </rdf:RDF>
  </metadata>
  <sodipodi:namedview
     inkscape:window-height="968"
     inkscape:window-width="1280"
     inkscape:pageshadow="2"
     inkscape:pageopacity="0.0"
     guidetolerance="10.0"
     gridtolerance="10.0"
     objecttolerance="10.0"
     borderopacity="1.0"
     bordercolor="#666666"
     pagecolor="#ffffff"
     id="base"
     showgrid="false"
     inkscape:zoom="0.70710678"
     inkscape:cx="136.22161"
     inkscape:cy="105.14925"
     inkscape:window-x="-4"
     inkscape:window-y="-4"
     inkscape:current-layer="g3249" />
  <defs
     id="defs5">
    <linearGradient
       id="linearGradient5156">
      <stop
         style="stop-color: rgb(0, 0, 0); stop-opacity: 1;"
         offset="0"
         id="stop5158" />
      <stop
         style="stop-color:#ffffff;stop-opacity:1;"
         offset="1"
         id="stop5160" />
    </linearGradient>
    <linearGradient
       x1="199.84335"
       y1="459.72089"
       x2="215.64703"
       y2="459.72089"
       id="linearGradient5162"
       xlink:href="#linearGradient5156"
       gradientUnits="userSpaceOnUse" />
    <linearGradient
       x1="199.84335"
       y1="459.72089"
       x2="215.64703"
       y2="459.72089"
       id="linearGradient5166"
       xlink:href="#linearGradient5156"
       gradientUnits="userSpaceOnUse"
       gradientTransform="matrix(2.91582,0,0,0.296433,-531.44396,269.92275)" />
    <linearGradient
       inkscape:collect="always"
       xlink:href="#linearGradient5156"
       id="linearGradient3256"
       gradientUnits="userSpaceOnUse"
       x1="207.74521"
       y1="482.93268"
       x2="207.74521"
       y2="436.50912"
       gradientTransform="matrix(0,1.01326,-1.01326,0,618.76568,115.68433)" />
  </defs>
  <g
     id="g3242">
    <path
       id="path3224"
       d="M 301.58952,345.51693 L 376.44234,305.00759 L 130.67991,305.00759 L 55.827089,345.51694 L 301.58952,345.51693 z"
       style="fill:#ececec;fill-opacity:1;fill-rule:nonzero;stroke:#000000;stroke-width:1;stroke-linecap:round;stroke-linejoin:round;stroke-miterlimit:4;stroke-dashoffset:0;stroke-opacity:1"
       sodipodi:nodetypes="ccccc" />
    <path
       transform="matrix(0.879252,-0.476357,0,1,0,0)"
       id="rect3215"
       d="M 6.7766352,49.368286 L 91.909013,49.368286 L 91.909013,248.88229 L 6.7766352,248.88229 L 6.7766352,49.368286 z"
       style="fill:#e6e6e6;fill-opacity:1;fill-rule:nonzero;stroke:#000000;stroke-width:1.06645691000000010;stroke-linecap:round;stroke-linejoin:round;stroke-miterlimit:4;stroke-dashoffset:0;stroke-opacity:1" />
    <path
       transform="matrix(0.879252,-0.476357,0,1,0,0)"
       sodipodi:nodetypes="ccccc"
       style="fill:#ececec;fill-opacity:1;fill-rule:nonzero;stroke:#000000;stroke-width:1.06645691000000010;stroke-linecap:round;stroke-linejoin:round;stroke-miterlimit:4;stroke-dashoffset:0;stroke-opacity:1"
       d="M 63.52242,275.91354 L 148.6548,275.9576 L 91.909013,248.92635 L 6.7766352,248.88229 L 63.52242,275.91354 z"
       id="path3218" />
    <path
       sodipodi:nodetypes="ccccc"
       style="fill:#e6e6e6;fill-opacity:1;fill-rule:nonzero;stroke:#000000;stroke-width:1;stroke-linecap:round;stroke-linejoin:round;stroke-miterlimit:4;stroke-dashoffset:0;stroke-opacity:1"
       d="M 55.825788,245.70516 L 130.6786,205.15175 L 130.6786,304.9637 L 55.825788,345.5171 L 55.825788,245.70516 z"
       id="path3222" />
    <path
       id="path3240"
       d="M 63.52242,275.91354 L 63.497189,375.82968 L 6.7514021,348.79843 L 6.7766352,248.88229 L 63.52242,275.91354 z"
       style="fill:#f9f9f9;fill-opacity:1;fill-rule:nonzero;stroke:#000000;stroke-width:1.06645691000000010;stroke-linecap:round;stroke-linejoin:round;stroke-miterlimit:4;stroke-dashoffset:0;stroke-opacity:1"
       sodipodi:nodetypes="ccccc"
       transform="matrix(0.879252,-0.476357,0,1,0,0)" />
  </g>
  <path
     id="path3254"
     style="opacity:1;fill:url(#linearGradient3256);fill-opacity:1;stroke:#00c8ff;stroke-width:2.00000285999999990;stroke-linecap:round;stroke-miterlimit:4;stroke-dasharray:none;stroke-opacity:1"
     d="M 152.94889,333.68423 C 140.51485,333.68783 130.42933,330.32892 130.42933,326.18424 C 130.42933,322.03955 140.51485,318.68063 152.94889,318.68424 C 165.38293,318.68063 175.46845,322.03955 175.46845,326.18424 C 175.46845,330.32892 165.38293,333.68783 152.94889,333.68423 z" />
  <g
     id="g3249">
    <path
       id="rect3206"
       d="M 205.41476,195.51442 L 305.49281,195.51442 L 305.49281,345.45897 L 205.41476,345.45897 L 205.41476,195.51442 z"
       style="fill:#f9f9f9;fill-opacity:1;fill-rule:nonzero;stroke:#000000;stroke-width:1;stroke-linecap:round;stroke-linejoin:round;stroke-miterlimit:4;stroke-dashoffset:0;stroke-opacity:1;opacity:1" />
    <path
       sodipodi:nodetypes="ccccc"
       style="fill:#ececec;fill-opacity:1;fill-rule:nonzero;stroke:#000000;stroke-width:1;stroke-linecap:round;stroke-linejoin:round;stroke-miterlimit:4;stroke-dashoffset:0;stroke-opacity:1;opacity:1"
       d="M 205.41476,195.51442 L 305.49281,195.51442 L 379.93101,155.51901 L 279.85296,155.51901 L 205.41476,195.51442 z"
       id="path3209" />
    <path
       sodipodi:nodetypes="ccccc"
       style="fill:#e6e6e6;fill-opacity:1;fill-rule:nonzero;stroke:#000000;stroke-width:1;stroke-linecap:round;stroke-linejoin:round;stroke-miterlimit:4;stroke-dashoffset:0;stroke-opacity:1;opacity:1"
       d="M 379.93473,155.51937 L 305.49281,195.51442 L 305.49281,345.45897 L 379.93473,305.46392 L 379.93473,155.51937 z"
       id="path3213" />
  </g>
  <path
     id="path2235"
     style="fill:none;fill-rule:evenodd;stroke:#000000;stroke-width:1.00047003999999990px;stroke-linecap:round;stroke-linejoin:miter;stroke-opacity:1;opacity:1"
     d="M 205.50024,196.50071 L 205.50024,345.49976" />
  <path
     d="M 215.14704,459.72089 C 215.1506,471.99221 211.83564,481.94575 207.7452,481.94575 C 203.65475,481.94575 200.33979,471.99221 200.34335,459.72089 C 200.33979,447.44957 203.65475,437.49603 207.7452,437.49603 C 211.83564,437.49603 215.1506,447.44957 215.14704,459.72089 z "
     transform="matrix(1.01326, 0, 0, 1.01326, -147, -412.399)"
     style="fill:url(#linearGradient5162) rgb(0, 0, 0);fill-opacity:1;stroke:rgb(255, 200, 0);stroke-width:1.97383000000000000;stroke-linecap:round;stroke-miterlimit:4;stroke-dasharray:none;stroke-opacity:1;opacity:1"
     id="path4185" />
  <g
     transform="matrix(1, 0, 0, 1.14499, -145, -512.804)"
     id="g2191"
     style="opacity:1">
    <path
       d="M 264.96875,590.65625 L 265.3125,590.71875 L 265.34375,590.71875 L 266.21875,590.96875 L 266.25,590.96875 L 267.09375,591.28125 L 267.15625,591.3125 L 267.96875,591.65625 L 267.96875,591.6875 L 268.84375,592.15625 L 268.875,592.1875 L 269.6875,592.6875 L 269.71875,592.71875 L 270.53125,593.34375 L 270.53125,593.3125 L 271.34375,594.03125 L 271.65625,594.3125 L 272.34375,593.59375 L 272.03125,593.28125 L 272,593.28125 L 272,593.25 L 271.15625,592.5625 L 271.15625,592.53125 L 271.125,592.53125 L 270.28125,591.90625 L 270.28125,591.875 L 270.25,591.875 L 269.375,591.3125 L 269.34375,591.3125 L 268.46875,590.8125 L 268.4375,590.8125 L 268.4375,590.78125 L 267.53125,590.375 L 267.5,590.375 L 267.5,590.34375 L 266.5625,590.03125 L 266.53125,590 L 265.5625,589.75 L 265.53125,589.75 L 265.15625,589.65625 L 264.96875,590.65625 z M 257,590.75 L 256.96875,590.75 L 255.84375,591.28125 L 255.8125,591.28125 L 254.6875,591.90625 L 254.65625,591.90625 L 254.65625,591.9375 L 253.5,592.65625 L 253.46875,592.65625 L 252.28125,593.46875 L 252.28125,593.5 L 252.25,593.5 L 251.0625,594.40625 L 251.03125,594.4375 L 250.25,595.09375 L 250.875,595.875 L 251.65625,595.21875 L 251.6875,595.1875 L 252.84375,594.3125 L 252.875,594.28125 L 254.03125,593.46875 L 254.03125,593.5 L 255.15625,592.78125 L 255.1875,592.78125 L 256.28125,592.1875 L 256.3125,592.15625 L 257.375,591.65625 L 257.40625,591.65625 L 257.4375,591.625 L 257.0625,590.71875 L 257,590.71875 L 257,590.75 z M 276.5,600.5 L 276.625,600.6875 L 276.59375,600.6875 L 277.96875,603.125 L 278,603.15625 L 279.28125,605.8125 L 280.0625,607.5625 L 280.96875,607.15625 L 280.1875,605.40625 L 280.1875,605.375 L 278.875,602.6875 L 278.875,602.65625 L 277.46875,600.1875 L 277.46875,600.15625 L 277.34375,599.96875 L 276.5,600.5 z M 243.28125,602.21875 L 241.90625,603.90625 L 240.53125,605.71875 L 239.5,607.09375 L 240.3125,607.6875 L 241.34375,606.3125 L 241.3125,606.3125 L 242.71875,604.53125 L 242.6875,604.53125 L 244.0625,602.875 L 245.28125,601.4375 L 244.5,600.78125 L 243.28125,602.21875 z M 233.25,616.46875 L 230.8125,620.5625 L 231.65625,621.0625 L 234.09375,617 L 235.84375,614.25 L 235,613.71875 L 233.25,616.46875 z M 282.875,615 L 283.9375,618.375 L 284.96875,621.9375 L 285.15625,622.625 L 286.125,622.375 L 285.9375,621.65625 L 285.90625,621.65625 L 284.90625,618.09375 L 283.8125,614.6875 L 282.875,615 z M 287.0625,630.375 L 287.6875,633.3125 L 288.5,637.3125 L 288.5,637.34375 L 288.6875,638.1875 L 289.65625,638.03125 L 289.5,637.125 L 288.6875,633.125 L 288.03125,630.15625 L 287.0625,630.375 z M 290.0625,646.0625 L 290.65625,649.75 L 291.25,653.96875 L 292.25,653.8125 L 291.65625,649.625 L 291.65625,649.59375 L 291.0625,645.90625 L 290.0625,646.0625 z M 292.3125,661.875 L 292.90625,666.8125 L 293.25,669.8125 L 294.21875,669.71875 L 293.90625,666.71875 L 293.90625,666.6875 L 293.3125,661.75 L 292.3125,661.875 z M 294.03125,677.78125 L 294.5625,683.625 L 294.71875,685.75 L 295.71875,685.65625 L 295.5625,683.5625 L 295.5625,683.53125 L 295.03125,677.6875 L 294.03125,677.78125 z M 295.3125,693.71875 L 295.6875,699.3125 L 295.6875,699.34375 L 295.84375,701.6875 L 296.84375,701.625 L 296.6875,699.28125 L 296.6875,699.25 L 296.3125,693.65625 L 295.3125,693.71875 z M 296.25,709.6875 L 296.40625,713.03125 L 296.59375,717.65625 L 297.59375,717.625 L 297.40625,713 L 297.25,709.625 L 296.25,709.6875 z M 296.84375,725.65625 L 296.96875,731.0625 L 297,733.65625 L 298,733.625 L 297.96875,731.0625 L 297.96875,731.03125 L 297.84375,725.625 L 296.84375,725.65625 z "
       style="fill:rgb(0, 0, 0);fill-opacity:1;fill-rule:evenodd;stroke:none;stroke-width:1;stroke-linecap:butt;stroke-linejoin:miter;stroke-miterlimit:4;stroke-dasharray:8, 8;stroke-dashoffset:0pt;stroke-opacity:1"
       id="path6143" />
    <path
       d="M 297.43825,723.63786 L 293.41285,719.66342 L 297.50194,733.63766 L 301.41269,719.61247 L 297.43825,723.63786 z "
       style="fill-rule:evenodd;stroke:rgb(0, 0, 0);stroke-width:0.80000000000000004pt;marker-start:none"
       id="path2197" />
  </g>
  <g
     transform="translate(-145, -406.362)"
     id="g2199"
     style="opacity:1">
    <path
       d="M 209.65625,458.28125 L 216.875,458.375 L 216.90625,458.375 L 217.0625,458.40625 L 217.09375,457.40625 L 216.9375,457.375 L 216.90625,457.375 L 209.6875,457.28125 L 209.65625,458.28125 z M 225.03125,458.71875 L 230.9375,459.09375 L 233,459.28125 L 233.09375,458.28125 L 231.03125,458.09375 L 231,458.09375 L 225.09375,457.71875 L 225.03125,458.71875 z M 240.96875,460.03125 L 244.4375,460.4375 L 244.46875,460.4375 L 248.875,461.0625 L 249,460.0625 L 244.59375,459.4375 L 244.5625,459.4375 L 241.0625,459.0625 L 240.96875,460.03125 z M 256.78125,462.3125 L 257.4375,462.40625 L 263.71875,463.59375 L 263.75,463.59375 L 264.59375,463.78125 L 264.8125,462.8125 L 263.9375,462.625 L 257.625,461.4375 L 257.59375,461.4375 L 256.9375,461.3125 L 256.78125,462.3125 z M 272.40625,465.5625 L 275.90625,466.40625 L 275.9375,466.40625 L 280.125,467.53125 L 280.375,466.5625 L 276.1875,465.4375 L 276.15625,465.4375 L 272.625,464.5625 L 272.40625,465.5625 z M 287.78125,469.75 L 293.25,471.53125 L 295.375,472.28125 L 295.6875,471.3125 L 293.5625,470.59375 L 293.5625,470.5625 L 288.09375,468.8125 L 287.78125,469.75 z M 302.875,475 L 304.15625,475.5 L 304.15625,475.46875 L 309.40625,477.625 L 309.40625,477.59375 L 310.28125,477.96875 L 310.65625,477.0625 L 309.8125,476.6875 L 309.78125,476.6875 L 304.53125,474.5625 L 304.5,474.5625 L 303.21875,474.0625 L 302.875,475 z M 317.59375,481.21875 L 319.5625,482.125 L 324.46875,484.5 L 324.78125,484.65625 L 325.21875,483.78125 L 324.90625,483.625 L 320,481.21875 L 318,480.3125 L 317.59375,481.21875 z M 331.84375,488.375 L 333.875,489.5 L 333.875,489.46875 L 338.40625,492.0625 L 338.78125,492.3125 L 339.3125,491.4375 L 338.90625,491.21875 L 334.375,488.625 L 334.34375,488.625 L 332.3125,487.5 L 331.84375,488.375 z M 345.59375,496.46875 L 347.09375,497.40625 L 351.25,500.15625 L 351.25,500.125 L 352.28125,500.84375 L 352.84375,500.03125 L 351.8125,499.3125 L 347.625,496.5625 L 346.125,495.625 L 345.59375,496.46875 z M 358.8125,505.4375 L 359.21875,505.75 L 359.21875,505.71875 L 363.03125,508.5625 L 365.1875,510.25 L 365.8125,509.4375 L 363.65625,507.78125 L 363.625,507.78125 L 359.8125,504.9375 L 359.8125,504.90625 L 359.40625,504.625 L 358.8125,505.4375 z M 371.40625,515.25 L 373.75,517.1875 L 373.78125,517.21875 L 377.09375,520.09375 L 377.125,520.09375 L 377.46875,520.4375 L 378.15625,519.6875 L 377.78125,519.34375 L 374.40625,516.4375 L 372.0625,514.46875 L 371.40625,515.25 z M 383.375,525.8125 L 383.46875,525.875 L 386.46875,528.78125 L 386.46875,528.75 L 389.125,531.375 L 389.8125,530.65625 L 387.15625,528.0625 L 387.15625,528.03125 L 384.15625,525.15625 L 384.0625,525.09375 L 383.375,525.8125 z M 394.65625,537.125 L 394.8125,537.28125 L 397.375,540.0625 L 399.84375,542.78125 L 399.84375,542.8125 L 400.03125,543 L 400.78125,542.375 L 400.59375,542.125 L 398.125,539.375 L 395.5625,536.59375 L 395.375,536.4375 L 394.65625,537.125 z M 405.21875,549.09375 L 408.59375,553.21875 L 408.59375,553.25 L 410.1875,555.3125 L 411,554.71875 L 409.375,552.625 L 405.96875,548.46875 L 405.21875,549.09375 z M 415,561.71875 L 415.625,562.59375 L 418.53125,566.75 L 419.5625,568.25 L 420.375,567.71875 L 419.375,566.1875 L 416.4375,562 L 415.78125,561.125 L 415,561.71875 z M 423.84375,574.96875 L 424.84375,576.59375 L 427.09375,580.5 L 427.8125,581.875 L 428.71875,581.40625 L 427.96875,580.03125 L 427.96875,580 L 425.71875,576.09375 L 425.6875,576.0625 L 424.71875,574.46875 L 423.84375,574.96875 z "
       style="fill:rgb(0, 0, 0);fill-opacity:1;fill-rule:evenodd;stroke:none;stroke-width:1;stroke-linecap:butt;stroke-linejoin:miter;stroke-miterlimit:4;stroke-dasharray:8, 8;stroke-dashoffset:0pt;stroke-opacity:1"
       id="path6145" />
    <path
       d="M 423.75318,572.73021 L 418.37814,570.96697 L 428.26792,581.65305 L 425.51641,567.35518 L 423.75318,572.73021 z "
       style="fill-rule:evenodd;stroke:rgb(0, 0, 0);stroke-width:0.80000000000000004pt;marker-start:none"
       id="path2205" />
  </g>
  <path
     id="path2558"
     style="opacity:1;fill:#000000"
     d="M 82.006943,224.31829 C 81.216,224.05877 80.589583,223.47502 80.41066,222.83072 C 80.339363,222.57398 80.305389,217.32174 80.30501,206.4978 L 80.304452,190.54332 L 79.903712,190.54332 L 79.502973,190.54332 L 79.502973,196.56583 C 79.502973,202.46981 79.498896,202.59551 79.295823,202.95263 C 79.032788,203.4152 78.737399,203.63194 78.159296,203.78656 C 77.304614,204.01515 76.369917,203.57865 76.034261,202.79417 C 75.818297,202.28943 75.832362,188.82727 76.049725,187.99276 C 76.53968,186.11169 78.126351,184.57062 79.976867,184.17848 C 80.951665,183.97192 89.96433,183.96937 90.936257,184.17538 C 91.926258,184.38523 92.776575,184.85989 93.528973,185.62267 C 94.302886,186.40727 94.664148,187.04374 94.933613,188.09734 C 95.121436,188.83172 95.131794,189.22501 95.131794,195.62191 C 95.131794,201.46937 95.111196,202.4209 94.977696,202.74041 C 94.770119,203.23721 94.556515,203.46063 94.079854,203.67952 C 93.288856,204.04275 92.283513,203.80907 91.815786,203.15327 L 91.575235,202.816 L 91.547949,196.67966 L 91.520662,190.54332 L 91.122164,190.54332 L 90.723665,190.54332 L 90.723665,206.57616 C 90.723665,224.15114 90.763427,222.98418 90.142288,223.63863 C 89.651635,224.1556 89.151289,224.35116 88.319231,224.35116 C 87.487174,224.35116 86.986827,224.1556 86.496174,223.63863 C 85.887126,222.99692 85.914797,223.49431 85.914797,213.18838 L 85.914797,203.76775 L 85.514058,203.76775 L 85.113319,203.76775 L 85.113319,213.18838 C 85.113319,220.86556 85.088318,222.66866 84.978224,222.93138 C 84.776391,223.41302 84.337315,223.8879 83.8764,224.12304 C 83.432167,224.34967 82.423618,224.45501 82.006943,224.31829 z M 84.260441,183.0553 C 83.049333,182.62273 82.300803,181.95595 81.770976,180.83772 C 81.477723,180.21879 81.456576,180.09989 81.456576,179.07001 C 81.456576,178.02792 81.474782,177.92889 81.780536,177.30781 C 83.307707,174.20567 87.716665,174.19807 89.241244,177.29494 C 89.556914,177.93616 89.57154,178.01698 89.57154,179.1201 C 89.57154,180.181 89.548895,180.32045 89.291496,180.84461 C 88.859103,181.72513 88.220452,182.36717 87.348123,182.7983 C 86.670837,183.13303 86.498853,183.17471 85.677882,183.20307 C 84.988989,183.22687 84.638479,183.19033 84.260441,183.0553 z" />
</svg>
