<?xml version="1.0" encoding="utf-8"?>
<!-- Generator: Adobe Illustrator 19.1.0, SVG Export Plug-In . SVG Version: 6.00 Build 0)  -->
<svg version="1.1" id="Layer_1" xmlns="http://www.w3.org/2000/svg" xmlns:xlink="http://www.w3.org/1999/xlink" x="0px" y="0px"
	 viewBox="0 0 259 332" style="enable-background:new 0 0 259 332;" xml:space="preserve">
<style type="text/css">
	.st0{fill:none;stroke:#000000;stroke-width:3;stroke-miterlimit:10;}
	.st1{fill:#FFFFFF;stroke:#000000;stroke-width:3;stroke-miterlimit:10;}
</style>
<path class="st0" d="M27.3,257.3c0,23.6-4.7,57.5-10.4,57.5s-10.4-34-10.4-57.5c0-23.6,4.7-27.8,10.4-27.8S27.3,233.7,27.3,257.3z"
	/>
<path class="st0" d="M233.8,257.3c0,23.6,4.7,57.5,10.4,57.5c5.8,0,10.4-34,10.4-57.5c0-23.6-4.7-27.8-10.4-27.8
	C238.4,229.5,233.8,233.7,233.8,257.3z"/>
<path class="st0" d="M118.8,270.3c-12-0.4-23.8-1.5-35.4-3.2"/>
<path class="st0" d="M175.6,267.1c-11.6,1.7-23.4,2.8-35.4,3.2"/>
<path class="st0" d="M140.2,271.4c0,22.5-5.2,55-10.7,55c-5.5,0-10.7-32.5-10.7-55s5.2-26.6,10.7-26.6
	C135,244.8,140.2,248.9,140.2,271.4z"/>
<path class="st0" d="M214.8,117.5c-27.2,7.3-55.8,11.1-85.3,11.1c-29.5,0-58.1-3.9-85.4-11.1"/>
<path class="st0" d="M211.7,103.7c-26.2,7.1-53.8,10.8-82.2,10.8c-28.4,0-56-3.8-82.2-10.8"/>
<circle class="st1" cx="129.5" cy="164" r="26.3"/>
<circle cx="129.5" cy="164" r="20.5"/>
<path class="st0" d="M152.8,20.1c-8,0.4-16,0.7-24.1,0.7c-7.5,0-15.1-0.2-22.5-0.6"/>
<line class="st0" x1="24.2" y1="294.8" x2="109" y2="287"/>
<line class="st0" x1="55.4" y1="220.2" x2="26.2" y2="241.3"/>
<line class="st0" x1="236.9" y1="295" x2="150" y2="287"/>
<line class="st0" x1="203.7" y1="220.2" x2="234.7" y2="242.6"/>
<path class="st0" d="M139,292.1c75.9-29.7,77.8-137.5,77.8-137.5C222.8,47.3,129.5,6,129.5,6S36.2,47.3,42.2,154.7
	c0,0,1.8,107.8,77.8,137.5"/>
</svg>
